<svg width="33" height="33" viewBox="0 0 33 33" fill="none" xmlns="http://www.w3.org/2000/svg">
<path d="M16.9574 20.1408C19.1645 20.1408 20.9538 18.3564 20.9538 16.1553C20.9538 13.9541 19.1645 12.1697 16.9574 12.1697C14.7502 12.1697 12.9609 13.9541 12.9609 16.1553C12.9609 18.3564 14.7502 20.1408 16.9574 20.1408Z" fill="#446CFB"/>
<path d="M31.8839 15.8165C30.7088 12.7851 28.6688 10.1635 26.016 8.27583C23.3632 6.38813 20.2139 5.31702 16.9573 5.19489C13.7008 5.31702 10.5515 6.38813 7.89865 8.27583C5.24584 10.1635 3.20582 12.7851 2.03071 15.8165C1.95135 16.0354 1.95135 16.2751 2.03071 16.494C3.20582 19.5254 5.24584 22.147 7.89865 24.0347C10.5515 25.9224 13.7008 26.9935 16.9573 27.1156C20.2139 26.9935 23.3632 25.9224 26.016 24.0347C28.6688 22.147 30.7088 19.5254 31.8839 16.494C31.9633 16.2751 31.9633 16.0354 31.8839 15.8165ZM16.9573 22.6318C15.6729 22.6318 14.4173 22.252 13.3493 21.5403C12.2814 20.8287 11.449 19.8172 10.9575 18.6337C10.466 17.4503 10.3374 16.1481 10.5879 14.8917C10.8385 13.6354 11.457 12.4814 12.3652 11.5756C13.2735 10.6698 14.4306 10.053 15.6904 9.80312C16.9501 9.55322 18.2559 9.68147 19.4425 10.1717C20.6292 10.6619 21.6434 11.492 22.357 12.5571C23.0706 13.6221 23.4515 14.8743 23.4515 16.1552C23.4488 17.8721 22.7638 19.5179 21.5465 20.732C20.3292 21.946 18.6789 22.6292 16.9573 22.6318Z" fill="#446CFB"/>
</svg>
