<svg width="541" height="543" viewBox="0 0 541 543" fill="none" xmlns="http://www.w3.org/2000/svg">
<g clip-path="url(#clip0_1_117)">
<path d="M273.924 534.179C126.655 534.179 6.84845 414.366 6.84845 267.089C6.84845 119.813 126.655 0 273.924 0C421.193 0 541 119.813 541 267.089C541 414.366 421.193 534.179 273.924 534.179ZM273.924 2.61624C128.093 2.61624 9.46456 121.265 9.46456 267.089C9.46456 412.914 128.093 531.562 273.924 531.562C419.755 531.562 538.384 412.914 538.384 267.089C538.384 121.265 419.741 2.61624 273.924 2.61624Z" fill="#FFE875"/>
<path d="M453.698 465.158C557.489 361.362 557.489 193.074 453.698 89.2772C349.906 -14.5195 181.627 -14.5195 77.8356 89.2772C-25.9558 193.074 -25.9558 361.362 77.8356 465.158C181.627 568.955 349.906 568.955 453.698 465.158Z" fill="#FFE875"/>
<path fill-rule="evenodd" clip-rule="evenodd" d="M144.886 385.56C143.256 385.56 141.694 385.861 140.243 386.395C139.585 385.683 138.654 385.217 137.599 385.217C137.106 385.217 136.64 385.313 136.216 385.491C135.983 382.423 133.421 379.999 130.285 379.999C128.915 379.999 127.669 380.451 126.669 381.218C126.45 380.916 126.189 380.656 125.888 380.437C126.463 379.423 126.792 378.245 126.792 376.999C126.792 375.067 126.011 373.3 124.738 372.04C123.464 370.766 121.711 369.986 119.779 369.986H119.752C118.684 369.424 117.465 369.109 116.177 369.109C115.383 369.109 114.616 369.232 113.903 369.451C113.575 368.753 113.027 368.178 112.342 367.835C112.534 366.959 112.63 366.054 112.63 365.137C112.63 361.616 111.205 358.425 108.904 356.124C106.603 353.823 103.412 352.398 99.8915 352.398C98.7683 352.398 97.6862 352.549 96.659 352.809C89.1257 352.918 83.058 359.055 83.058 366.616C83.058 366.726 83.058 366.835 83.058 366.931C82.3868 366.767 81.6883 366.671 80.976 366.671C79.5516 366.671 78.2093 367.027 77.0176 367.643C75.0042 364.904 71.758 363.109 68.0873 363.109C61.9784 363.109 57.0339 368.068 57.0339 374.177C57.0339 375.383 57.2256 376.533 57.5817 377.615C57.4722 377.615 57.3626 377.615 57.253 377.615C54.2397 377.615 51.8017 380.053 51.8017 383.067C51.8017 383.423 51.8427 383.765 51.8975 384.094H51.788C50.0895 384.094 48.7062 385.437 48.6514 387.121C48.1857 387.039 47.6926 386.984 47.1995 386.984C45.2271 386.984 43.3918 387.669 42.0769 388.916C38.5431 392.258 42.4056 393.135 46.1174 393.135H148.981C152.857 393.135 158.405 393.765 154.556 389.71C152.131 387.149 148.693 385.56 144.899 385.56H144.886ZM111.328 367.493C111.137 367.465 110.931 367.438 110.739 367.438H110.644C110.657 367.164 110.671 366.89 110.671 366.602C110.671 360.534 106.754 355.37 101.302 353.521C103.973 353.836 106.356 355.055 108.151 356.863C110.26 358.973 111.575 361.904 111.575 365.123C111.575 365.931 111.493 366.726 111.342 367.493H111.328ZM124.943 379.958C124.587 379.834 124.203 379.766 123.806 379.766C123.614 379.766 123.423 379.779 123.231 379.821C123.628 378.889 123.847 377.875 123.847 376.793C123.847 374.657 122.971 372.725 121.56 371.328C122.478 371.616 123.313 372.123 123.971 372.794C125.053 373.876 125.71 375.369 125.71 377.013C125.71 378.081 125.436 379.095 124.929 379.958H124.943Z" fill="white"/>
<path fill-rule="evenodd" clip-rule="evenodd" d="M412.496 103.074C410.866 103.074 409.304 103.362 407.852 103.91C407.195 103.198 406.25 102.746 405.209 102.746C404.716 102.746 404.25 102.841 403.826 103.02C403.593 99.9376 401.018 97.5268 397.895 97.5268C396.539 97.5268 395.279 97.9788 394.279 98.7459C394.06 98.4446 393.799 98.1843 393.498 97.9651C394.073 96.9515 394.388 95.7735 394.388 94.5271C394.388 92.5957 393.608 90.8424 392.334 89.5685C391.06 88.2946 389.307 87.5139 387.376 87.5139H387.348C386.28 86.9523 385.061 86.6372 383.773 86.6372C382.979 86.6372 382.226 86.7605 381.5 86.9797C381.171 86.2811 380.623 85.7058 379.938 85.3634C380.13 84.4867 380.226 83.5827 380.226 82.6649C380.226 79.1447 378.801 75.9668 376.487 73.6519C374.186 71.3507 370.994 69.9125 367.474 69.9125C366.351 69.9125 365.269 70.0631 364.242 70.3234C356.708 70.433 350.641 76.5695 350.641 84.1306C350.641 84.2402 350.641 84.336 350.641 84.4456C349.969 84.2813 349.271 84.1854 348.559 84.1854C347.134 84.1854 345.778 84.5415 344.6 85.1579C342.587 82.4184 339.341 80.624 335.67 80.624C329.561 80.624 324.603 85.5825 324.603 91.6917C324.603 92.897 324.795 94.0476 325.151 95.1297C325.041 95.1297 324.931 95.1297 324.808 95.1297C321.795 95.1297 319.357 97.5679 319.357 100.581C319.357 100.938 319.384 101.28 319.453 101.609C319.412 101.609 319.371 101.609 319.343 101.609C317.645 101.609 316.261 102.965 316.207 104.65C315.741 104.554 315.248 104.513 314.755 104.513C312.796 104.513 310.961 105.197 309.632 106.444C306.098 109.786 309.961 110.663 313.673 110.663H416.536C420.413 110.663 425.96 111.293 422.111 107.238C419.687 104.677 416.249 103.088 412.455 103.088L412.496 103.074ZM378.938 85.0072C378.747 84.9798 378.541 84.9524 378.349 84.9524H378.24C378.253 84.6785 378.267 84.3908 378.267 84.1169C378.267 78.0488 374.35 72.8849 368.898 71.0357C371.556 71.3507 373.953 72.5698 375.747 74.3779C377.856 76.4873 379.171 79.4186 379.171 82.6375C379.171 83.4457 379.089 84.2402 378.938 85.0072ZM392.553 97.472C392.197 97.3488 391.813 97.2803 391.416 97.2803C391.224 97.2803 391.033 97.294 390.841 97.3214C391.238 96.3899 391.457 95.3763 391.457 94.2942C391.457 92.1574 390.581 90.226 389.17 88.8288C390.088 89.1165 390.909 89.637 391.581 90.2945C392.663 91.3766 393.334 92.8696 393.334 94.5134C393.334 95.5818 393.046 96.5954 392.553 97.4583V97.472Z" fill="white"/>
<path d="M404.223 317.935C403.963 317.935 403.716 317.77 403.606 317.51C403.483 317.168 403.648 316.798 403.99 316.675C439.122 303.333 452.367 284.28 452.491 284.102C452.696 283.8 453.107 283.732 453.408 283.924C453.71 284.129 453.778 284.54 453.573 284.828C453.436 285.019 439.958 304.402 404.456 317.894C404.373 317.921 404.305 317.935 404.223 317.935Z" fill="white"/>
<path d="M230.149 112.293C202.002 112.293 183.141 95.6365 182.881 95.4037C182.607 95.1571 182.593 94.7462 182.84 94.4859C183.086 94.212 183.497 94.1983 183.758 94.4448C184.114 94.7599 219.287 125.771 265.227 102.074C265.542 101.91 265.939 102.033 266.103 102.348C266.268 102.663 266.144 103.061 265.829 103.225C252.941 109.882 240.874 112.293 230.149 112.293Z" fill="white"/>
<path fill-rule="evenodd" clip-rule="evenodd" d="M397.457 294.279C397.457 294.279 413.194 298.279 421.7 323.332C430.22 348.385 454.038 461.732 454.038 461.732L360.845 423.639L354.832 325.455L397.457 294.279Z" fill="#12006C"/>
<path fill-rule="evenodd" clip-rule="evenodd" d="M222.657 280.595C222.657 280.595 206.809 283.636 197.537 294.663C188.264 305.675 147.776 349.056 147.776 349.056L109.37 375.574L102.987 374.657C102.987 374.657 98.0972 401.12 113.876 422.16C129.655 443.199 147.639 449.569 171.225 448.706C194.811 447.857 207.549 426.16 224.068 408.873C240.586 391.587 222.643 280.595 222.643 280.595H222.657Z" fill="#12006C"/>
<path fill-rule="evenodd" clip-rule="evenodd" d="M277.65 233.667C277.65 233.667 276.677 238.735 275.842 243.105C275.006 247.474 275.294 260.857 275.294 260.857C274.664 264.501 274.089 273.445 268.802 273.322C259.83 273.103 274.705 304.278 286.758 307.511C300.688 311.25 329.643 294.868 345.504 285.211C347.504 283.992 345.463 278.472 347.134 277.691C347.134 277.691 339.436 274.856 338.615 267.761C337.807 260.665 340.231 234.873 340.231 234.873L277.65 233.681V233.667Z" fill="#59B2FF"/>
<path fill-rule="evenodd" clip-rule="evenodd" d="M277.65 233.667C277.65 233.667 276.677 238.735 275.842 243.105C275.006 247.474 275.294 260.857 275.294 260.857C275.02 262.418 274.76 264.953 274.13 267.322C279.882 272.226 286.21 277.349 289.539 279.184C293.73 281.499 298.976 282.54 304.126 282.458C309.276 282.417 314.494 281.253 318.631 278.856C322.863 276.39 331.985 268.336 338.437 262.418C338.574 252.269 340.217 234.859 340.217 234.859L277.636 233.667H277.65Z" fill="#2C81FE"/>
<path fill-rule="evenodd" clip-rule="evenodd" d="M347.107 277.678L397.443 294.279C397.443 294.279 375.432 326.003 378.678 380.752C379.322 391.601 384.198 402.668 390.266 414.078L376.692 495.415C376.692 495.415 378.281 507.373 380.171 517.166C345.518 533.713 306.728 543 265.761 543C238.066 543 211.371 538.754 186.264 530.891L196.263 487.908L194.523 439.843C190.127 395.066 206.44 322.25 222.643 280.582L268.788 273.308C271.062 299.032 311.673 301.648 347.107 277.664V277.678Z" fill="white"/>
<path fill-rule="evenodd" clip-rule="evenodd" d="M382.527 460.472L376.692 495.428C343.641 498.058 333.273 474.485 330.054 461.02C327.849 460.595 325.794 459.883 324.397 458.623C320.768 455.335 310.906 445.158 308.043 441.953C305.181 438.748 308.331 434.036 308.331 434.036C304.29 430.598 304.345 426.434 306.4 422.886C308.454 419.324 320.001 408.01 320.001 408.01C320.001 408.01 290.73 391.477 281.608 385.354C272.486 379.232 271.924 372.41 273.075 368.657C274.226 364.918 278.321 366.849 278.321 366.849C287.635 370.684 329.369 389.792 350.832 401.052C393.498 423.434 373.829 449.487 362.242 456.979C368.953 458.061 375.952 459.239 382.513 460.472H382.527ZM194.071 412.804C194.592 401.764 195.838 389.984 197.633 377.999C209.371 367.739 221.164 359.26 221.164 359.26L225.725 360.767C225.725 360.767 224.78 406.421 194.058 412.818L194.071 412.804Z" fill="#BFE1FF"/>
<path fill-rule="evenodd" clip-rule="evenodd" d="M347.107 277.678L397.443 294.279C397.443 294.279 385.691 311.223 380.623 341.728C380.582 341.481 380.568 341.221 380.596 340.974C382.02 328.866 378.623 318.264 365.871 310.497C353.133 302.744 337.437 295.046 337.437 295.046L313.905 292.416C324.603 289.992 336.094 285.115 347.093 277.664L347.107 277.678ZM207.097 330.769C211.768 312.031 217.205 294.567 222.643 280.595L268.788 273.322C269.363 279.814 272.376 284.828 277.143 288.321C277.143 288.321 240.285 298.594 226.054 304.717C212.877 310.387 207.796 328.167 207.111 330.769H207.097Z" fill="#12006C"/>
<path fill-rule="evenodd" clip-rule="evenodd" d="M366.707 190.917C366.707 190.917 372.254 185.506 375.692 186.109C379.13 186.726 382.828 194.944 381.883 200.861C380.952 206.792 372.802 227.01 362.023 218.271C351.229 209.518 366.707 190.903 366.707 190.903V190.917Z" fill="#59B2FF"/>
<path fill-rule="evenodd" clip-rule="evenodd" d="M362.324 196.903C361.899 197.286 361.735 197.971 361.954 198.451C362.16 198.875 362.598 198.985 362.995 198.725C362.995 198.725 364.666 217.326 367.447 214.655C370.227 211.984 373.131 209.436 374.555 204.861C375.993 200.286 372.432 195.711 373.925 194.602C375.35 193.547 376.651 195.465 376.774 195.643C377.788 197.314 378.171 199.204 378.171 199.204C378.295 199.752 378.76 199.985 379.226 199.725C379.692 199.464 379.966 198.807 379.856 198.259C379.856 198.245 378.418 191.109 373.597 190.972C368.981 190.835 362.351 196.862 362.338 196.875L362.324 196.903Z" fill="#2C81FE"/>
<path fill-rule="evenodd" clip-rule="evenodd" d="M252.913 182.438C252.913 182.438 248.229 176.261 244.75 176.356C241.257 176.452 236.381 184.027 236.436 190.027C236.491 196.026 241.545 217.23 253.502 210.19C265.473 203.135 252.913 182.438 252.913 182.438Z" fill="#59B2FF"/>
<path fill-rule="evenodd" clip-rule="evenodd" d="M256.351 189.013C256.721 189.451 256.776 190.164 256.488 190.602C256.228 190.986 255.776 191.027 255.42 190.712C255.42 190.712 251.009 208.861 248.653 205.806C246.298 202.752 243.818 199.807 243.079 195.067C242.339 190.328 246.544 186.342 245.229 185.013C243.969 183.753 242.408 185.465 242.257 185.63C241.011 187.123 240.353 188.945 240.353 188.945C240.161 189.465 239.655 189.63 239.23 189.301C238.805 188.972 238.627 188.287 238.819 187.753C238.819 187.739 241.298 180.904 246.092 181.479C250.667 182.027 256.337 188.972 256.351 188.986V189.013Z" fill="#2C81FE"/>
<path fill-rule="evenodd" clip-rule="evenodd" d="M317.261 88.1166C239.038 83.5005 245.709 149.085 248.708 201.793C253.379 283.841 351.421 291.156 368.2 210.696C378.979 159.015 395.292 95.1434 317.261 88.1029V88.1166Z" fill="#59B2FF"/>
<path fill-rule="evenodd" clip-rule="evenodd" d="M326.027 185.876C329.342 180.562 332.985 177.877 336.478 177.014C338.875 176.425 341.19 176.713 343.285 177.603C345.367 178.493 347.244 179.986 348.75 181.836C351.49 185.219 353.01 189.808 352.407 194.068C352.394 194.191 352.27 194.287 352.147 194.259C352.038 194.246 351.955 194.15 351.955 194.026C351.955 191.027 350.668 187.945 348.586 185.493C346.997 183.63 344.956 182.137 342.655 181.301C340.354 180.48 337.807 180.315 335.204 181.123C332.191 182.068 329.095 184.329 326.26 188.369C325.575 189.342 325 190.383 324.562 191.479C324.137 192.533 323.836 193.629 323.699 194.698C323.685 194.821 323.562 194.917 323.438 194.889C323.315 194.889 323.233 194.78 323.233 194.657C323.274 193.191 323.548 191.684 324.014 190.219C324.507 188.698 325.192 187.205 326.041 185.863L326.027 185.876Z" fill="#2C81FE"/>
<path fill-rule="evenodd" clip-rule="evenodd" d="M277.211 135.277L282.457 141.181C305.674 140.62 342.943 168.987 364.228 155.331C377.267 146.962 357.037 136.771 355.366 136.154C353.695 135.538 277.225 135.291 277.225 135.291L277.211 135.277Z" fill="#2C81FE"/>
<path fill-rule="evenodd" clip-rule="evenodd" d="M369.72 205.245C371.2 198.245 372.816 190.438 374.131 183.26C382.91 135.058 382.116 99.2665 317.234 93.4313C252.215 89.596 245.709 123.621 247.256 172.59C247.489 179.89 247.969 189.054 248.393 196.204C248.393 196.204 253.132 189.602 252.626 174.233C252.626 174.233 263.391 165.193 262.405 145.564C261.022 118.197 297.51 121.662 315.042 122.977C332.574 124.292 366.556 128.757 357.914 154.769C349.271 180.781 366.173 187.931 366.173 187.931C363.379 203.053 369.734 205.272 369.734 205.272L369.72 205.245Z" fill="#12006C"/>
<path fill-rule="evenodd" clip-rule="evenodd" d="M305.893 182.863C305.865 182.986 305.811 183.109 305.728 183.219L305.331 183.835V183.849C303.277 186.999 296.73 197.095 296.661 198.245C296.675 199.067 299.565 201.697 300.195 202.204C301.66 203.395 305.386 202.163 306.728 201.724C312.522 199.834 302.907 206.56 300.647 205.779C298.853 205.176 297.743 204.245 296.442 202.916C295.346 201.793 293.867 199.779 293.84 198.204C293.812 196.588 300.524 185.931 302.825 182.479C305.002 179.069 305.126 176.767 304.756 175.398C304.509 174.466 304.578 173.096 305.715 174.891C306.66 176.384 307.756 179.206 305.879 182.835L305.893 182.863Z" fill="#2C81FE"/>
<path fill-rule="evenodd" clip-rule="evenodd" d="M291.196 158.769C290.977 159.673 290.676 160.084 290.47 160.262C290.607 159.002 290.004 158.002 288.922 157.221C281.8 152.687 269.213 153.55 262.885 157.481C262.885 157.481 262.789 157.591 262.802 157.659C262.802 157.755 262.885 157.81 262.953 157.783C267.322 156.605 271.527 156.769 275.184 157.536C281.047 158.755 285.484 161.522 286.964 162.796C287.484 163.248 288.114 163.727 288.813 163.851C289.525 163.974 290.306 163.727 291.059 162.7C291.306 162.358 291.511 162.029 291.662 161.7C292.018 160.919 292.127 160.193 292.114 159.632C292.114 159.043 291.963 158.632 291.84 158.495C291.826 158.481 291.812 158.468 291.785 158.454C291.401 158.235 291.21 158.728 291.21 158.728V158.755L291.196 158.769Z" fill="#12006C"/>
<path fill-rule="evenodd" clip-rule="evenodd" d="M325.959 186.808C329.287 181.493 332.917 178.808 336.409 177.945C338.806 177.356 341.121 177.644 343.217 178.534C345.312 179.425 347.175 180.918 348.668 182.767C351.408 186.15 352.928 190.739 352.325 194.999C352.312 195.122 352.188 195.218 352.065 195.191C351.955 195.191 351.873 195.081 351.873 194.972C351.873 191.972 350.586 188.89 348.49 186.438C346.901 184.575 344.86 183.068 342.559 182.246C340.258 181.425 337.711 181.26 335.108 182.068C332.095 183.014 328.999 185.274 326.164 189.314C325.479 190.287 324.904 191.328 324.466 192.424C324.041 193.478 323.74 194.574 323.603 195.643C323.589 195.766 323.48 195.862 323.343 195.834C323.219 195.821 323.137 195.725 323.137 195.602C323.178 194.136 323.452 192.629 323.918 191.164C324.397 189.643 325.096 188.15 325.931 186.808H325.959Z" fill="#12006C"/>
<path fill-rule="evenodd" clip-rule="evenodd" d="M328.945 185C329.479 184.26 330.027 183.575 330.575 182.959C332.67 181.589 335.286 180.863 338.067 181.068C344.354 181.534 349.093 186.575 348.668 192.314C347.956 201.875 335.286 203.423 329.123 198.642C328 197.574 327.137 196.3 326.575 194.889C325.685 191.753 326.822 187.972 328.958 185H328.945Z" fill="#12006C"/>
<path d="M351.517 199.492C351.449 199.492 351.366 199.492 351.284 199.451C350.312 199.094 349.832 198.519 349.778 198.464C349.545 198.19 349.586 197.766 349.874 197.547C350.147 197.327 350.558 197.355 350.791 197.629C350.805 197.643 351.12 197.999 351.736 198.232C352.079 198.355 352.257 198.725 352.133 199.067C352.038 199.327 351.791 199.492 351.517 199.492Z" fill="#BFE1FF"/>
<path d="M348.696 201.354C348.545 201.354 348.394 201.3 348.271 201.19C347.627 200.629 347.408 200.026 347.394 199.957C347.285 199.615 347.463 199.245 347.805 199.135C348.148 199.026 348.518 199.204 348.627 199.546C348.627 199.56 348.764 199.889 349.134 200.204C349.408 200.437 349.435 200.848 349.202 201.122C349.079 201.272 348.887 201.341 348.709 201.341L348.696 201.354Z" fill="#BFE1FF"/>
<path d="M259.734 190.835C259.433 190.835 259.159 190.616 259.09 190.314C259.022 189.958 259.241 189.616 259.597 189.547C260.255 189.41 260.625 189.095 260.625 189.095C260.898 188.862 261.309 188.89 261.542 189.15C261.775 189.424 261.761 189.821 261.487 190.068C261.433 190.123 260.857 190.616 259.844 190.821C259.803 190.821 259.762 190.821 259.721 190.821L259.734 190.835Z" fill="#BFE1FF"/>
<path d="M262.241 193.081C262.022 193.081 261.816 192.972 261.693 192.78C261.501 192.479 261.583 192.068 261.898 191.876C262.323 191.602 262.487 191.301 262.501 191.301C262.665 190.986 263.063 190.862 263.378 191.027C263.693 191.191 263.816 191.575 263.665 191.903C263.638 191.958 263.337 192.52 262.611 192.985C262.501 193.054 262.378 193.081 262.254 193.081H262.241Z" fill="#BFE1FF"/>
<path fill-rule="evenodd" clip-rule="evenodd" d="M333.725 192.273C334.821 192.246 335.738 193.15 335.752 194.273C335.766 195.396 334.889 196.341 333.793 196.369C332.698 196.396 331.78 195.492 331.766 194.369C331.753 193.232 332.629 192.3 333.725 192.273Z" fill="white"/>
<path fill-rule="evenodd" clip-rule="evenodd" d="M278.294 171.014C281.526 172.329 284.622 175.439 287.046 181.014C287.662 182.425 288.114 183.959 288.361 185.493C288.607 186.972 288.648 188.452 288.47 189.862C288.457 189.972 288.361 190.054 288.237 190.054C288.114 190.054 288.018 189.945 288.018 189.835C288.032 188.78 287.909 187.684 287.649 186.616C287.375 185.507 286.977 184.411 286.471 183.383C284.32 179.096 281.69 176.48 278.924 175.137C276.54 173.987 274.075 173.768 271.746 174.233C269.418 174.699 267.24 175.85 265.446 177.398C263.09 179.452 261.405 182.233 260.981 185.109C260.967 185.219 260.871 185.301 260.762 185.301C260.638 185.301 260.542 185.191 260.542 185.082C260.583 180.904 262.693 176.726 265.816 173.864C267.528 172.302 269.528 171.138 271.664 170.576C273.801 170.028 276.075 170.083 278.28 171.001L278.294 171.014Z" fill="#2C81FE"/>
<path fill-rule="evenodd" clip-rule="evenodd" d="M278.321 172.124C281.54 173.439 284.649 176.548 287.073 182.137C287.69 183.548 288.142 185.082 288.388 186.616C288.621 188.095 288.676 189.575 288.498 190.999C288.498 191.109 288.388 191.191 288.279 191.191C288.155 191.191 288.059 191.081 288.059 190.958C288.087 189.903 287.95 188.821 287.69 187.739C287.429 186.63 287.018 185.534 286.512 184.507C284.361 180.219 281.731 177.603 278.965 176.261C276.581 175.11 274.116 174.891 271.787 175.357C269.459 175.822 267.281 176.973 265.487 178.521C263.131 180.575 261.446 183.356 261.022 186.232C261.008 186.342 260.912 186.424 260.803 186.424C260.679 186.424 260.583 186.328 260.583 186.205C260.625 182.027 262.734 177.85 265.857 174.987C267.569 173.425 269.569 172.261 271.705 171.699C273.842 171.138 276.116 171.206 278.321 172.11V172.124Z" fill="#12006C"/>
<path fill-rule="evenodd" clip-rule="evenodd" d="M284.402 180.356C283.991 179.562 283.567 178.836 283.129 178.151C281.321 176.535 278.91 175.466 276.212 175.261C270.116 174.809 264.829 178.959 264.419 184.534C263.734 193.807 275.664 197.122 282.279 193.424C283.498 192.561 284.526 191.465 285.265 190.191C286.566 187.301 286.032 183.507 284.416 180.356H284.402Z" fill="#12006C"/>
<path fill-rule="evenodd" clip-rule="evenodd" d="M272.281 186.616C273.349 186.589 274.239 187.465 274.253 188.561C274.267 189.657 273.417 190.561 272.349 190.588C271.281 190.616 270.39 189.739 270.377 188.643C270.363 187.547 271.212 186.643 272.281 186.616Z" fill="white"/>
<path fill-rule="evenodd" clip-rule="evenodd" d="M308.386 247.365C309.344 247.31 310.07 246.529 310.016 245.598C309.961 244.68 309.139 243.968 308.166 244.023C308.153 244.023 302.77 245.036 296.469 243.475C294.25 242.927 293.716 245.351 295.935 245.899C302.729 247.598 308.358 247.365 308.372 247.365H308.386Z" fill="#2C81FE"/>
<path fill-rule="evenodd" clip-rule="evenodd" d="M262.378 143.085C257.762 141.811 259.09 139.811 255.981 137.757C226.245 118.018 261.392 67.3785 272.568 84.5278C272.692 84.7196 272.842 85.3497 272.938 85.1305C287.676 51.1605 346.847 56.4341 327.958 76.5558C327.958 76.5558 372.309 68.8852 371.159 100.047C382.486 78.4324 401.346 155.262 357.9 154.742C321.576 154.303 295.702 135.921 262.364 143.085H262.378Z" fill="#12006C"/>
<path fill-rule="evenodd" clip-rule="evenodd" d="M325.397 166.206C325.466 167.165 325.712 167.631 325.89 167.85C325.959 166.549 326.739 165.604 327.958 164.96C335.93 161.358 348.586 164.056 354.352 168.987C354.352 168.987 354.435 169.11 354.407 169.193C354.38 169.288 354.298 169.33 354.229 169.302C349.983 167.467 345.696 167.028 341.861 167.275C335.711 167.672 330.753 169.864 329.041 170.946C328.438 171.329 327.712 171.727 326.986 171.754C326.233 171.781 325.493 171.412 324.89 170.261C324.685 169.877 324.548 169.508 324.452 169.151C324.219 168.302 324.233 167.549 324.329 166.974C324.438 166.385 324.658 165.974 324.794 165.864C324.808 165.85 324.836 165.837 324.849 165.837C325.274 165.672 325.383 166.206 325.383 166.206V166.234L325.397 166.206Z" fill="#12006C"/>
<path fill-rule="evenodd" clip-rule="evenodd" d="M348.764 162.084C349.23 161.741 349.86 161.878 350.175 162.399C350.49 162.919 350.367 163.631 349.901 163.988L341.422 170.384C340.957 170.74 340.327 170.59 340.012 170.069C339.697 169.549 339.82 168.836 340.286 168.494L348.75 162.097L348.764 162.084Z" fill="#59B2FF"/>
<path fill-rule="evenodd" clip-rule="evenodd" d="M371.652 213.792C372.473 213.847 373.09 214.573 373.021 215.381C372.966 216.203 372.254 216.819 371.432 216.751C370.611 216.696 369.994 215.97 370.063 215.162C370.117 214.34 370.83 213.724 371.652 213.792Z" fill="#12006C"/>
<path fill-rule="evenodd" clip-rule="evenodd" d="M258.419 84.7469C258.707 96.3351 265.432 115.115 309.262 103.855L310.385 103.567C311.207 103.348 311.645 103.225 311.618 103.513C311.604 103.622 311.522 103.677 311.426 103.677C311.18 103.8 310.687 103.965 309.933 104.225L309.344 104.43C305.961 105.595 299.332 107.718 291.963 109.334C287.21 110.375 282.142 111.197 277.431 111.389C271.664 111.635 267.035 110.868 263.323 109.663C259.611 108.457 256.83 106.8 254.762 105.28C254.351 104.978 254.05 104.759 253.749 104.526C251.078 102.54 249.475 101.348 247.174 101.307C249.845 94.4311 254.05 88.4042 258.433 84.7469H258.419ZM316.152 102.006C316.152 102.006 332.314 94.8421 341.724 98.513C341.82 98.5541 341.861 98.65 341.82 98.7459C341.792 98.8281 341.696 98.8829 341.601 98.8555C341.601 98.8555 337.82 97.8008 335.355 100.02C333.232 101.924 331.342 101.636 328.835 101.266C328.246 101.184 327.63 101.088 326.972 101.02C325.192 100.828 323.315 100.828 321.439 101.061C319.699 101.28 317.96 101.691 316.302 102.335C316.207 102.376 316.111 102.335 316.07 102.225C316.028 102.129 316.07 102.033 316.165 101.992L316.152 102.006Z" fill="#2C81FE"/>
<path fill-rule="evenodd" clip-rule="evenodd" d="M163.555 344.029C155.528 339.687 147.502 339.015 147.502 339.015C140.736 319.222 114.944 316.593 114.944 316.593C115.698 300.813 106.74 296.06 102.425 298.991C98.1109 301.936 96.974 308.757 96.974 308.757C96.974 308.757 90.2078 314.949 86.8246 318.592C83.4415 322.222 81.9348 332.304 88.7696 338.687C98.6724 347.96 100.439 365.287 103.809 377.821C108.301 394.559 109.876 398.271 128.6 401.12C133.613 407.01 140.379 405.12 148.392 405.257C156.405 405.38 164.226 408.764 170.047 408.572C175.868 408.394 180.005 401.627 180.005 401.627C184.018 403.011 191.524 402.065 194.907 398.805C198.29 395.545 208.248 385.026 208.248 385.026C211.754 383.902 215.069 381.273 219.643 372.561C224.218 363.863 225.971 363.726 227.725 351.275C229.478 338.81 232.614 333.865 225.602 333.057C218.589 332.235 215.014 339.44 215.014 339.44C207.001 339.002 205.303 346.015 205.303 346.015C201.851 339.632 191.4 342.002 188.702 346.083C186.004 350.152 178.553 362.425 178.553 362.425C177.786 359.466 176.635 356.891 175.224 354.631C178.662 349.467 175.17 342.385 166.773 343.138C165.732 343.234 164.637 343.549 163.541 344.015L163.555 344.029Z" fill="#59B2FF"/>
<path d="M179.827 402.531C179.703 402.531 179.58 402.504 179.47 402.422C179.169 402.23 179.073 401.819 179.265 401.518C181.744 397.641 184.483 393.792 187.127 390.053C190.839 384.82 194.044 380.3 195.414 377.273C197.715 372.177 201.577 362.137 204.029 355.288C206.248 349.097 204.728 346.385 204.714 346.357C204.536 346.056 204.632 345.645 204.933 345.467C205.234 345.289 205.631 345.371 205.823 345.686C205.892 345.809 207.713 348.878 205.262 355.74C202.796 362.616 198.92 372.698 196.605 377.834C195.181 380.985 191.948 385.546 188.195 390.833C185.566 394.545 182.84 398.395 180.374 402.244C180.251 402.435 180.032 402.545 179.827 402.545V402.531ZM128.586 401.778C128.244 401.778 127.956 401.518 127.929 401.175C127.902 400.819 128.162 400.504 128.532 400.477C136.955 399.805 149.611 385.669 156.405 378.067C158.268 375.999 159.733 374.355 160.582 373.588C164.363 370.177 174.567 354.425 174.677 354.275C174.882 353.973 175.279 353.891 175.581 354.083C175.882 354.275 175.978 354.686 175.772 354.987C175.348 355.644 165.363 371.04 161.459 374.561C160.665 375.287 159.213 376.903 157.377 378.944C150.46 386.669 137.572 401.066 128.628 401.778C128.614 401.778 128.586 401.778 128.573 401.778H128.586ZM156.199 387.587C156.021 387.587 155.83 387.505 155.706 387.354C155.473 387.08 155.501 386.669 155.775 386.437C166.075 377.547 171.28 372.547 178.005 362.068C178.197 361.767 178.608 361.671 178.909 361.877C179.21 362.069 179.306 362.479 179.114 362.781C172.307 373.41 167.034 378.451 156.638 387.436C156.514 387.546 156.364 387.601 156.213 387.601L156.199 387.587ZM208.234 385.683C208.097 385.683 207.96 385.642 207.837 385.56C207.549 385.341 207.494 384.93 207.7 384.642C214.329 375.807 218.438 357.069 220.191 349.069C220.383 348.193 220.547 347.439 220.684 346.85C220.999 345.508 220.821 344.303 220.15 343.275C218.602 340.865 214.904 340.098 214.863 340.098C214.507 340.029 214.274 339.687 214.343 339.33C214.411 338.974 214.754 338.755 215.11 338.81C215.288 338.851 219.383 339.687 221.232 342.563C222.095 343.892 222.342 345.44 221.944 347.152C221.808 347.741 221.657 348.48 221.451 349.357C219.684 357.439 215.534 376.382 208.741 385.45C208.617 385.615 208.412 385.711 208.22 385.711L208.234 385.683ZM124.587 372.218C124.313 372.218 124.066 372.054 123.971 371.794C123.847 371.451 124.025 371.082 124.368 370.945C125.299 370.602 126.203 370.26 127.093 369.876C126.833 369.767 126.655 369.506 126.683 369.205C126.71 368.849 127.011 368.575 127.395 368.616L129.545 368.808C135.106 366.233 140.106 362.945 145.173 358.507C148.803 345.974 146.886 339.248 146.872 339.18C146.762 338.837 146.968 338.468 147.31 338.372C147.653 338.276 148.022 338.468 148.118 338.81C148.2 339.084 149.954 345.275 146.968 356.905C147.94 356 148.926 355.055 149.913 354.069C158.679 345.303 163.116 343.481 163.308 343.399C163.637 343.275 164.02 343.426 164.157 343.769C164.294 344.097 164.13 344.481 163.801 344.618C163.76 344.631 159.377 346.481 150.844 355.001C143.913 361.932 137.435 366.63 129.97 370.068C129.942 370.068 129.929 370.095 129.901 370.095C128.258 370.849 126.573 371.534 124.806 372.177C124.738 372.205 124.655 372.218 124.587 372.218ZM107.808 340.289C107.685 340.289 107.562 340.248 107.452 340.18C107.151 339.988 107.069 339.577 107.26 339.276C113.849 329.153 114.273 316.702 114.287 316.565C114.287 316.209 114.588 315.935 114.944 315.935C114.944 315.935 114.944 315.935 114.958 315.935C115.314 315.935 115.602 316.25 115.588 316.606C115.574 317.045 115.259 325.811 111.191 334.769L111.712 336.522C111.808 336.865 111.616 337.235 111.274 337.331C110.931 337.427 110.561 337.235 110.465 336.892L110.356 336.522C109.753 337.687 109.096 338.851 108.356 339.988C108.233 340.18 108.027 340.289 107.808 340.289ZM95.303 316.209C95.303 316.209 95.1934 316.209 95.1249 316.182C94.7825 316.086 94.5771 315.73 94.6729 315.373C95.5906 312.031 96.3166 308.648 96.3303 308.62C96.4124 308.264 96.7412 308.045 97.111 308.114C97.4671 308.182 97.6863 308.538 97.6178 308.894C97.6178 308.936 96.8781 312.346 95.9468 315.73C95.8646 316.017 95.6043 316.209 95.3167 316.209H95.303Z" fill="#2C81FE"/>
<path fill-rule="evenodd" clip-rule="evenodd" d="M147.488 339.015C147.488 339.015 148.776 343.358 147.406 351.645C151.625 348.028 153.2 343.631 153.72 340.193C150.049 339.221 147.488 339.015 147.488 339.015ZM161.021 374.081C159.884 375.109 157.583 377.766 154.611 381.053C156.487 380.807 158.473 381.423 157.898 385.464C166.938 377.588 172.101 372.479 178.539 362.425C177.772 359.466 176.621 356.891 175.211 354.631C175.211 354.631 164.897 370.575 161.007 374.081H161.021ZM96.9603 308.771C96.9603 308.771 95.7276 309.894 94.0566 311.47C94.7414 311.757 95.4811 312.264 95.9057 313.223C96.522 310.757 96.9466 308.771 96.9466 308.771H96.9603ZM114.931 316.592C114.931 316.592 114.725 323.77 111.726 331.756C116.396 328.222 118.506 321.263 119.355 317.373C116.67 316.771 114.931 316.592 114.931 316.592Z" fill="#2C81FE"/>
<path fill-rule="evenodd" clip-rule="evenodd" d="M288.374 212.491C283.307 215.997 288.799 231.558 295.374 237.585C301.962 243.612 309.112 241.174 314.988 231.339C327.109 211.025 297.551 206.149 288.374 212.491Z" fill="#12006C"/>
<path fill-rule="evenodd" clip-rule="evenodd" d="M288.963 212.121C289.21 214.285 289.196 216.956 292.703 217.504C296.209 218.052 309.673 219.326 312.549 219.066C314.577 218.887 315.398 217.819 315.919 216.531C310.577 209.285 295.593 208.217 288.977 212.107L288.963 212.121Z" fill="white"/>
<path fill-rule="evenodd" clip-rule="evenodd" d="M291.675 233.065C294.702 231.791 299.003 231.257 304.619 233.517C304.619 233.517 309.974 228.243 316.946 227.271C316.48 228.558 315.837 229.914 314.988 231.352C309.112 241.187 301.962 243.625 295.374 237.599C294.072 236.407 292.812 234.845 291.675 233.065Z" fill="#2C81FE"/>
<path d="M302.482 237.105C302.414 237.105 302.332 237.105 302.263 237.064C301.921 236.941 301.743 236.571 301.866 236.229C303.085 232.763 305.016 231.256 305.345 231.188C305.701 231.119 306.043 231.352 306.112 231.708C306.167 231.982 306.043 232.243 305.838 232.38C305.728 232.462 304.153 233.681 303.099 236.667C303.003 236.941 302.756 237.105 302.482 237.105Z" fill="#12006C"/>
<path fill-rule="evenodd" clip-rule="evenodd" d="M335.437 430.05C324.329 474.978 391.416 487.525 417.468 492.963C462.859 502.455 464.065 450.747 434.027 428.187C417.029 415.407 401.62 395.436 380.472 381.396C377.199 379.218 369.652 378.478 362.721 382.848C360.639 385.546 305.756 401.929 335.451 430.05H335.437Z" fill="#12006C"/>
<path fill-rule="evenodd" clip-rule="evenodd" d="M305.824 399.874C305.824 399.874 303.112 401.929 299.113 404.709C295.113 407.49 294.456 411.216 299.346 415.544C304.235 419.872 307.988 419.886 312.262 418.188C316.535 416.503 305.824 399.86 305.824 399.86V399.874Z" fill="#2C81FE"/>
<path fill-rule="evenodd" clip-rule="evenodd" d="M351.723 375.095C331.451 361.822 291.73 338.783 282.841 334.071C282.841 334.071 278.965 331.742 277.444 335.358C275.938 338.974 275.842 345.823 284.334 352.795C292.826 359.767 320.37 379.04 320.37 379.04C320.37 379.04 307.783 389.19 305.4 392.532C303.003 395.874 302.551 400.011 306.249 403.819C306.249 403.819 302.674 408.216 305.208 411.668C307.742 415.133 316.59 426.214 319.877 429.83C323.165 433.447 331.273 433.803 334.725 434.515C338.176 435.227 336.697 429.146 336.697 429.146C336.697 429.146 343.107 434.063 353.366 433.433C362.612 432.145 397.662 405.134 351.736 375.081L351.723 375.095Z" fill="#59B2FF"/>
<path d="M336.683 429.803C336.396 429.803 336.122 429.611 336.053 429.31C336.053 429.31 335.149 426.091 329.725 423.352C329.643 423.31 329.575 423.256 329.506 423.187L324.74 417.352L323.151 418.174C322.822 418.338 322.439 418.215 322.274 417.886C322.11 417.571 322.233 417.174 322.562 417.01L324.589 415.955C324.589 415.955 324.63 415.941 324.644 415.927L336.272 409.928C336.588 409.764 336.985 409.887 337.149 410.216C337.313 410.531 337.19 410.928 336.861 411.092L325.931 416.736L330.438 422.242C336.355 425.269 337.3 428.831 337.327 428.981C337.409 429.337 337.204 429.694 336.848 429.776C336.793 429.776 336.738 429.789 336.683 429.789V429.803ZM306.235 404.476C306.03 404.476 305.824 404.38 305.701 404.189C305.496 403.887 305.564 403.49 305.865 403.285C305.934 403.23 313.111 398.258 321.22 392.902L324.849 390.518C328.986 387.806 331.479 386.176 331.616 385.656C331.643 385.3 332.026 385.039 332.328 385.067C332.684 385.094 332.958 385.423 332.93 385.779C332.835 386.847 331.588 387.669 325.575 391.614L321.959 393.998C313.864 399.34 306.701 404.312 306.632 404.353C306.523 404.435 306.386 404.463 306.263 404.463L306.235 404.476ZM320.37 379.697C320.179 379.697 319.987 379.615 319.864 379.451C319.644 379.163 319.686 378.752 319.973 378.533L325.356 374.246C325.644 374.027 326.055 374.068 326.274 374.355C326.493 374.629 326.452 375.054 326.164 375.273L320.781 379.56C320.658 379.656 320.521 379.697 320.37 379.697Z" fill="#2C81FE"/>
<path fill-rule="evenodd" clip-rule="evenodd" d="M332.122 412.804L330.26 413.763L324.89 416.53L329.999 422.776C331.013 423.283 331.876 423.817 332.602 424.324C336.094 426.803 336.67 429.146 336.67 429.146C336.67 429.146 341.505 432.858 349.504 433.419C333.78 430.009 334.506 417.735 335.464 412.832C335.711 411.558 335.985 410.791 335.985 410.791L332.109 412.791L332.122 412.804Z" fill="#2C81FE"/>
<path d="M380.555 484.251C380.555 484.251 380.431 484.251 380.376 484.224C379.856 484.073 328.205 468.471 334.382 435.707C334.451 435.351 334.793 435.118 335.149 435.186C335.505 435.255 335.738 435.597 335.67 435.953C329.712 467.554 380.239 482.826 380.746 482.977C381.089 483.073 381.294 483.443 381.185 483.785C381.102 484.073 380.842 484.251 380.555 484.251ZM422.933 417.01C422.782 417.01 422.631 416.955 422.508 416.859C422.179 416.585 389.362 388.875 381.212 382.697C373.418 376.793 363.173 383.327 363.064 383.396C362.762 383.587 362.351 383.505 362.16 383.204C361.968 382.903 362.05 382.492 362.351 382.3C362.461 382.231 373.473 375.191 382.006 381.656C390.183 387.861 423.029 415.585 423.357 415.873C423.631 416.105 423.672 416.516 423.439 416.79C423.316 416.941 423.124 417.023 422.946 417.023L422.933 417.01Z" fill="#2C81FE"/>
<path d="M306.235 404.49C306.071 404.49 305.893 404.421 305.77 404.298C302.263 400.682 301.934 396.258 304.866 392.176C307.29 388.793 319.439 378.971 319.959 378.547C320.247 378.314 320.658 378.369 320.877 378.643C321.11 378.917 321.055 379.341 320.781 379.56C320.658 379.656 308.235 389.697 305.92 392.929C304.441 394.997 302.564 399.107 306.701 403.38C306.947 403.641 306.947 404.052 306.687 404.312C306.564 404.435 306.4 404.49 306.235 404.49ZM351.723 375.752C351.599 375.752 351.476 375.725 351.366 375.643C331.054 362.342 291.648 339.467 282.526 334.646C282.211 334.482 282.088 334.084 282.252 333.756C282.416 333.441 282.814 333.317 283.142 333.482C292.264 338.317 331.739 361.219 352.079 374.533C352.38 374.725 352.462 375.136 352.27 375.437C352.147 375.629 351.928 375.739 351.723 375.739V375.752ZM178.553 363.096C178.553 363.096 178.484 363.096 178.457 363.096C178.197 363.055 177.991 362.863 177.923 362.616C177.21 359.877 176.115 357.315 174.677 355.001C174.54 354.781 174.54 354.494 174.677 354.288C176.142 352.069 176.265 349.371 174.992 347.234C173.499 344.741 170.54 343.495 166.828 343.823C165.897 343.905 164.883 344.179 163.801 344.645C163.609 344.727 163.404 344.714 163.226 344.618C155.419 340.399 147.502 339.7 147.433 339.687C147.173 339.673 146.954 339.495 146.872 339.248C140.325 320.099 115.109 317.291 114.862 317.277C114.52 317.236 114.26 316.949 114.273 316.592C114.848 304.429 109.685 300.566 108.082 299.676C106.206 298.621 104.22 298.58 102.768 299.566C98.7409 302.32 97.6041 308.84 97.5904 308.908C97.563 309.059 97.4945 309.182 97.3849 309.292C97.3164 309.346 90.605 315.51 87.2766 319.085C87.0301 319.346 86.6192 319.359 86.3452 319.113C86.085 318.866 86.0713 318.455 86.3178 318.195C89.3859 314.894 95.2893 309.442 96.3303 308.47C96.5768 307.21 97.9191 301.279 102.014 298.498C103.877 297.224 106.384 297.251 108.699 298.553C113.301 301.128 115.848 307.648 115.588 316.072C119.547 316.634 141.53 320.551 147.954 338.454C149.721 338.659 156.556 339.632 163.568 343.344C164.664 342.892 165.719 342.632 166.705 342.536C170.869 342.166 174.375 343.673 176.115 346.577C177.58 349.042 177.525 352.11 175.978 354.672C177.128 356.589 178.06 358.658 178.758 360.849C180.744 357.589 185.99 349.015 188.141 345.755C189.88 343.125 194.277 341.276 198.4 341.467C201.276 341.591 203.618 342.7 205.111 344.618C206.056 342.536 208.604 338.673 214.603 338.81C215.493 337.276 219.205 331.687 225.643 332.441C227.697 332.673 229.012 333.276 229.765 334.317C231.135 336.18 230.574 339.098 229.628 343.919C229.218 346.083 228.738 348.522 228.327 351.398C228.272 351.754 227.999 352.001 227.588 351.96C227.232 351.905 226.985 351.576 227.04 351.22C227.451 348.302 227.93 345.851 228.341 343.673C229.176 339.358 229.724 336.495 228.697 335.084C228.163 334.358 227.136 333.934 225.478 333.742C219 332.988 215.589 339.7 215.562 339.769C215.452 340.002 215.192 340.125 214.945 340.139C207.618 339.728 205.974 345.946 205.919 346.22C205.851 346.481 205.632 346.672 205.371 346.714C205.111 346.755 204.837 346.618 204.714 346.371C203.536 344.193 201.276 342.919 198.358 342.782C194.715 342.618 190.716 344.248 189.25 346.481C186.593 350.494 179.196 362.685 179.114 362.808C178.991 363 178.786 363.123 178.553 363.123V363.096ZM293.264 265.98C293.264 265.98 293.155 265.98 293.086 265.952C272.774 260.282 250.27 240.461 248.064 201.834C248.037 201.478 248.325 201.163 248.681 201.149C249.037 201.149 249.352 201.409 249.379 201.766C251.544 239.694 273.554 259.145 293.442 264.692C293.785 264.788 293.99 265.144 293.894 265.5C293.812 265.788 293.552 265.98 293.264 265.98ZM255.995 138.414C255.872 138.414 255.748 138.387 255.639 138.305C242.421 129.524 242.928 115.799 244.421 108.403C247.078 95.1709 256.707 82.1582 265.035 80.5556C268.363 79.9118 271.171 81.1583 273.143 84.1717C273.335 84.4731 273.253 84.884 272.952 85.0758C272.65 85.2675 272.239 85.1853 272.048 84.884C270.377 82.3226 268.103 81.2952 265.281 81.8294C257.419 83.3499 248.27 95.8695 245.709 108.649C244.284 115.731 243.791 128.853 256.365 137.209C256.666 137.414 256.748 137.812 256.543 138.113C256.42 138.305 256.214 138.4 255.995 138.4V138.414Z" fill="white"/>
<path fill-rule="evenodd" clip-rule="evenodd" d="M309.577 303.785C327.534 301.128 346.216 292.594 357.229 281.02L347.107 277.678C347.038 277.719 346.97 277.774 346.901 277.815C311.522 301.648 271.062 298.991 268.802 273.322L267.678 273.5L261.446 274.472C261.597 287.786 267.952 296.156 277.485 300.621C286.279 304.744 297.771 305.525 309.591 303.785H309.577Z" fill="#12006C"/>
<path fill-rule="evenodd" clip-rule="evenodd" d="M100.357 170.193C91.961 180.89 87.6465 194.793 89.3997 209.354C90.1804 215.874 92.1253 221.983 94.9743 227.49C97.9328 233.202 101.891 238.27 106.576 242.488L106.671 242.584C119.505 255.748 122.313 262.98 123.984 267.281C124.45 268.487 124.834 269.459 125.313 270.24L126.354 272.062V272.089C127.929 274.924 129.299 277.404 133.572 276.883L150.748 274.815H150.775H150.803L167.992 272.774C172.266 272.267 173.006 269.541 173.855 266.418V266.391L174.457 264.377C174.731 263.514 174.882 262.473 175.046 261.186C175.663 256.611 176.69 248.926 186.072 233.106L186.141 232.996C189.702 227.791 192.359 221.928 193.893 215.696C195.373 209.669 195.825 203.286 195.044 196.766C193.318 182.192 185.853 169.699 175.17 161.275C164.5 152.851 150.597 148.509 136.024 150.249H135.914L135.805 150.276C121.231 152.03 108.753 159.522 100.357 170.22V170.193Z" fill="#FCCB37"/>
<path d="M89.3997 210.012C89.0709 210.012 88.7833 209.765 88.7559 209.436C87.0438 195.163 90.9748 181.082 99.8504 169.782C108.726 158.481 121.464 151.317 135.736 149.591C135.764 149.591 135.887 149.564 135.914 149.564C150.241 147.879 164.294 151.838 175.581 160.741C175.868 160.96 175.909 161.371 175.69 161.659C175.471 161.947 175.06 161.988 174.772 161.769C163.774 153.084 150.05 149.222 136.12 150.865C136.092 150.865 135.955 150.865 135.942 150.865C121.985 152.564 109.548 159.55 100.891 170.576C92.2349 181.603 88.3861 195.341 90.0708 209.258C90.1119 209.614 89.8517 209.943 89.4955 209.984C89.4682 209.984 89.4408 209.984 89.4134 209.984L89.3997 210.012Z" fill="white"/>
<path d="M134.709 141.51C134.052 141.51 133.49 141.017 133.408 140.359L132.928 136.318C132.846 135.606 133.353 134.949 134.079 134.867C134.791 134.784 135.449 135.291 135.531 136.003L136.01 140.044C136.092 140.756 135.586 141.414 134.86 141.496C134.805 141.496 134.75 141.496 134.709 141.496V141.51Z" fill="white"/>
<path d="M167.143 146.167C166.965 146.167 166.801 146.14 166.623 146.057C165.965 145.77 165.65 145.003 165.938 144.345L167.54 140.606C167.828 139.935 168.595 139.633 169.253 139.921C169.91 140.209 170.225 140.976 169.937 141.633L168.335 145.373C168.116 145.866 167.636 146.167 167.13 146.167H167.143Z" fill="white"/>
<path d="M192.893 166.426C192.496 166.426 192.099 166.248 191.839 165.905C191.4 165.33 191.524 164.508 192.099 164.07L195.359 161.632C195.948 161.193 196.756 161.317 197.194 161.892C197.633 162.467 197.509 163.289 196.934 163.727L193.674 166.166C193.441 166.344 193.167 166.426 192.893 166.426Z" fill="white"/>
<path d="M88.2902 244.721C87.893 244.721 87.4958 244.543 87.2356 244.201C86.7973 243.625 86.9205 242.804 87.4958 242.365L90.7557 239.927C91.3446 239.489 92.1527 239.612 92.591 240.187C93.0293 240.763 92.9061 241.584 92.3308 242.023L89.0709 244.461C88.8381 244.639 88.5642 244.721 88.2902 244.721Z" fill="white"/>
<path d="M205.056 196.848C204.399 196.848 203.837 196.355 203.755 195.698C203.673 194.985 204.18 194.328 204.906 194.246L208.946 193.766C209.658 193.684 210.316 194.191 210.398 194.903C210.48 195.615 209.973 196.273 209.247 196.355L205.207 196.834C205.207 196.834 205.097 196.834 205.043 196.834L205.056 196.848Z" fill="white"/>
<path d="M75.3329 212.34C74.6755 212.34 74.1139 211.847 74.0317 211.189C73.9496 210.477 74.4563 209.82 75.1823 209.738L79.2229 209.258C79.9351 209.176 80.5926 209.683 80.6747 210.409C80.7569 211.135 80.2501 211.778 79.5242 211.861L75.4836 212.34C75.4836 212.34 75.374 212.34 75.3193 212.34H75.3329Z" fill="white"/>
<path d="M204.139 230.887C203.96 230.887 203.796 230.859 203.618 230.777L199.879 229.175C199.221 228.887 198.906 228.12 199.194 227.462C199.482 226.791 200.249 226.49 200.906 226.777L204.645 228.38C205.316 228.668 205.618 229.435 205.33 230.092C205.111 230.585 204.632 230.887 204.125 230.887H204.139Z" fill="white"/>
<path d="M84.0442 179.425C83.8661 179.425 83.7018 179.384 83.5237 179.315L79.7844 177.713C79.1133 177.425 78.812 176.658 79.0996 176C79.3872 175.329 80.1543 175.028 80.8254 175.316L84.5647 176.918C85.2358 177.206 85.5371 177.973 85.2495 178.63C85.0304 179.124 84.551 179.425 84.0442 179.425Z" fill="white"/>
<path d="M104.302 153.673C103.905 153.673 103.507 153.495 103.247 153.153L100.809 149.893C100.371 149.317 100.494 148.496 101.069 148.057C101.645 147.633 102.466 147.742 102.905 148.318L105.343 151.578C105.781 152.153 105.658 152.975 105.083 153.413C104.85 153.591 104.576 153.673 104.302 153.673Z" fill="white"/>
<path d="M143.913 287.882C143.215 287.882 142.626 287.321 142.612 286.609C142.598 286.102 141.462 247.283 132.586 221.449C118.601 219.34 111.52 212.669 109.657 206.464C108.479 202.546 109.52 198.862 112.232 197.3C115.643 195.355 120.492 197.218 125.231 202.3C128.997 206.354 132.065 212.258 134.558 219.079C137.996 219.477 141.859 219.614 146.173 219.394C145.05 206.519 144.639 194.287 145.776 185.589C147.379 173.398 153.392 171.96 156.857 172.179C165.842 172.768 177.416 186.246 177.402 199.752C177.402 207.162 173.649 219.723 149.077 221.819C151.83 250.652 157.884 281.979 157.98 282.431C158.117 283.143 157.651 283.828 156.953 283.965C156.24 284.102 155.556 283.636 155.419 282.938C155.049 281.047 149.132 250.461 146.434 221.997C142.448 222.202 138.818 222.12 135.517 221.792C144.132 247.721 145.201 284.513 145.256 286.513C145.269 287.239 144.708 287.841 143.982 287.855H143.941L143.913 287.882ZM156.186 174.795C150.94 174.795 149.022 180.808 148.351 185.945C147.242 194.383 147.666 206.464 148.803 219.23C165.541 217.792 174.745 210.916 174.759 199.766C174.772 187.986 164.253 175.316 156.665 174.809C156.501 174.809 156.35 174.795 156.186 174.795ZM115.191 199.177C114.533 199.177 113.972 199.327 113.52 199.588C111.89 200.519 111.342 202.985 112.15 205.724C113.725 210.957 119.725 216.573 131.559 218.668C129.285 212.724 126.559 207.628 123.286 204.108C119.916 200.478 117.122 199.19 115.177 199.19L115.191 199.177Z" fill="white"/>
<path fill-rule="evenodd" clip-rule="evenodd" d="M168.006 272.76L169.088 281.814C169.91 288.663 164.965 294.95 158.117 295.758L148.611 296.895C141.763 297.717 135.476 292.772 134.668 285.924L133.586 276.856L150.762 274.787H150.789H150.817L168.006 272.746V272.76Z" fill="#12006C"/>
<path fill-rule="evenodd" clip-rule="evenodd" d="M115.164 161.289C109.274 165.056 106.589 171.371 109.164 175.384C111.739 179.397 118.588 179.603 124.477 175.836C130.367 172.069 133.052 165.755 130.477 161.741C127.902 157.728 121.053 157.522 115.164 161.289Z" fill="white"/>
<path fill-rule="evenodd" clip-rule="evenodd" d="M101.152 177.452C99.371 179.247 98.919 181.699 100.138 182.918C101.371 184.137 103.809 183.671 105.603 181.863C107.384 180.069 107.836 177.617 106.617 176.398C105.384 175.179 102.946 175.644 101.152 177.452Z" fill="white"/>
<path fill-rule="evenodd" clip-rule="evenodd" d="M437.219 264.336L452.669 286.06L502.265 229.558L442.67 257.474L437.219 264.336Z" fill="#59B2FF"/>
<path fill-rule="evenodd" clip-rule="evenodd" d="M452.669 286.06L448.683 266.788L463.393 273.842L452.669 286.06Z" fill="#2C81FE"/>
<path fill-rule="evenodd" clip-rule="evenodd" d="M448.683 266.788L463.339 277.924L482.007 270.664L502.265 229.558L448.683 266.788Z" fill="white"/>
<path fill-rule="evenodd" clip-rule="evenodd" d="M437.219 264.336L423.22 260.597L433.931 251.132L502.265 229.558L437.219 264.336Z" fill="white"/>
<path fill-rule="evenodd" clip-rule="evenodd" d="M192.209 78.0351L179.95 94.2668L143.338 50.092L188.195 72.6657L192.209 78.0351Z" fill="#59B2FF"/>
<path fill-rule="evenodd" clip-rule="evenodd" d="M179.95 94.2668L183.415 79.6515L172.033 84.7196L179.95 94.2668Z" fill="#2C81FE"/>
<path fill-rule="evenodd" clip-rule="evenodd" d="M183.415 79.6514L171.992 87.8289L157.898 81.8842L143.338 50.092L183.415 79.6514Z" fill="white"/>
<path fill-rule="evenodd" clip-rule="evenodd" d="M192.209 78.0351L202.961 75.4874L195.003 68.0222L143.338 50.092L192.209 78.0351Z" fill="white"/>
<path fill-rule="evenodd" clip-rule="evenodd" d="M492.171 109.485C519.112 117.649 534.33 146.099 526.153 173.042C517.989 199.985 489.541 215.203 462.599 207.039C457.572 205.519 452.943 203.286 448.806 200.478L433.781 204.779L436.548 188.753C427.206 176.22 423.741 159.591 428.617 143.482C436.78 116.553 465.229 101.321 492.171 109.485Z" fill="#FCCB37"/>
<path d="M477.405 210.546C472.283 210.546 467.174 209.792 462.229 208.286C457.38 206.82 452.792 204.669 448.587 201.903L434.137 206.025C433.712 206.149 433.233 206.039 432.904 205.738C432.575 205.436 432.411 204.984 432.493 204.546L435.164 189.068C425.549 175.863 422.631 158.714 427.371 143.099C434.096 120.895 454.203 105.978 477.378 105.978C482.501 105.978 487.609 106.745 492.554 108.238C505.922 112.293 516.907 121.292 523.482 133.606C530.07 145.92 531.467 160.056 527.413 173.425C520.687 195.629 500.594 210.546 477.405 210.546ZM448.806 199.163C449.066 199.163 449.327 199.231 449.546 199.382C453.669 202.163 458.189 204.313 462.982 205.779C467.68 207.203 472.529 207.929 477.405 207.929C499.43 207.929 518.51 193.752 524.906 172.658C528.755 159.96 527.426 146.537 521.167 134.839C514.907 123.141 504.484 114.58 491.787 110.731C487.089 109.307 482.24 108.581 477.364 108.581C455.353 108.581 436.26 122.758 429.863 143.852C425.316 158.865 428.206 175.357 437.588 187.958C437.808 188.246 437.89 188.616 437.821 188.958L435.411 202.93L448.436 199.204C448.546 199.163 448.669 199.149 448.792 199.149L448.806 199.163Z" fill="white"/>
<path d="M439.492 139.798C439.396 139.798 439.301 139.77 439.205 139.729C438.876 139.565 438.753 139.181 438.903 138.852C439.287 138.072 439.684 137.305 440.109 136.551C440.287 136.236 440.684 136.127 440.999 136.305C441.314 136.483 441.424 136.88 441.246 137.195C440.835 137.921 440.451 138.674 440.081 139.428C439.972 139.661 439.739 139.798 439.492 139.798ZM443.026 133.798C442.903 133.798 442.766 133.757 442.656 133.675C442.355 133.469 442.287 133.058 442.492 132.757C452.176 118.922 468.598 111.608 485.35 113.663C485.706 113.704 485.966 114.032 485.925 114.389C485.884 114.745 485.555 115.005 485.199 114.95C468.941 112.95 452.984 120.059 443.574 133.497C443.451 133.675 443.245 133.771 443.04 133.771L443.026 133.798Z" fill="white"/>
<path fill-rule="evenodd" clip-rule="evenodd" d="M471.324 354.48C471.324 358.877 474.885 362.452 479.295 362.452C474.885 362.452 471.324 366.027 471.324 370.424C471.324 366.013 467.749 362.452 463.352 362.452C467.749 362.452 471.324 358.877 471.324 354.48Z" fill="white"/>
<path fill-rule="evenodd" clip-rule="evenodd" d="M482.925 330.537C482.925 332.578 484.582 334.221 486.61 334.221C484.569 334.221 482.925 335.879 482.925 337.906C482.925 335.865 481.282 334.221 479.241 334.221C481.282 334.221 482.925 332.564 482.925 330.537Z" fill="white"/>
<path fill-rule="evenodd" clip-rule="evenodd" d="M44.8026 309.059C44.8026 313.456 48.3774 317.031 52.7741 317.031C48.3774 317.031 44.8026 320.606 44.8026 325.003C44.8026 320.606 41.2277 317.031 36.831 317.031C41.2277 317.031 44.8026 313.456 44.8026 309.059Z" fill="white"/>
<path fill-rule="evenodd" clip-rule="evenodd" d="M56.4038 285.115C56.4038 287.156 58.0611 288.8 60.0883 288.8C58.0474 288.8 56.4038 290.457 56.4038 292.485C56.4038 290.444 54.7465 288.8 52.7194 288.8C54.7602 288.8 56.4038 287.143 56.4038 285.115Z" fill="white"/>
<path fill-rule="evenodd" clip-rule="evenodd" d="M241.873 58.79C241.873 63.187 245.448 66.762 249.845 66.762C245.448 66.762 241.873 70.3234 241.873 74.734C241.873 70.3371 238.312 66.762 233.902 66.762C238.299 66.762 241.873 63.187 241.873 58.79Z" fill="white"/>
<path fill-rule="evenodd" clip-rule="evenodd" d="M253.475 34.8467C253.475 36.8876 255.132 38.5313 257.159 38.5313C255.118 38.5313 253.475 40.1887 253.475 42.216C253.475 40.175 251.831 38.5313 249.79 38.5313C251.831 38.5313 253.475 36.8739 253.475 34.8467Z" fill="white"/>
<path fill-rule="evenodd" clip-rule="evenodd" d="M501.786 139.113L492.308 139.88L468.872 166.261L463.147 159.769C462.791 159.358 462.298 159.139 461.777 159.111L455.86 157.29C455.23 157.084 454.504 157.221 453.97 157.687L448.204 165.563C447.395 166.275 447.313 167.522 448.039 168.343L465.051 188.424C465.366 188.78 465.749 188.999 466.201 189.068L472.105 190.835C472.351 190.944 472.625 190.999 472.913 190.999C473.502 190.999 473.995 190.78 474.378 190.342L514.154 153.646C514.88 152.838 514.798 151.591 513.99 150.865L503.251 139.647C502.868 139.318 502.402 139.154 501.936 139.154L501.799 139.113H501.786Z" fill="#FFA347"/>
<path fill-rule="evenodd" clip-rule="evenodd" d="M467.79 166.097L491.828 132.675L489.13 133.867L489.102 127.401L495.54 128.73C496.047 128.675 496.581 128.799 497.019 129.114L509.84 140.003C510.798 140.688 511.017 142.03 510.333 142.976L471.557 186.931C471.187 187.452 470.666 187.739 470.05 187.808C469.735 187.835 469.434 187.808 469.16 187.712L462.599 186.465C462.599 186.465 461.325 181.699 461.325 181.37C461.325 181.37 461.873 181.521 462.654 181.753L447.847 167.522C446.984 166.727 446.93 165.371 447.724 164.508L450.368 159.974L447.341 158.468L447.943 153.372L454.531 154.687C455.079 154.66 455.641 154.851 456.079 155.249L467.831 166.083L467.79 166.097Z" fill="#2C81FE"/>
<path fill-rule="evenodd" clip-rule="evenodd" d="M460.681 164.741L486.925 128.251C487.609 127.292 488.938 127.086 489.897 127.757L502.703 138.661C503.662 139.346 503.881 140.674 503.197 141.633L464.421 185.575C464.051 186.096 463.53 186.383 462.9 186.452C462.27 186.52 461.709 186.328 461.243 185.904L440.698 166.166C439.835 165.371 439.78 164.015 440.574 163.152L445.916 154.016C446.711 153.153 448.067 153.098 448.929 153.892L460.681 164.727V164.741Z" fill="#59B2FF"/>
<path d="M460.681 165.398C460.517 165.398 460.353 165.344 460.243 165.22L448.491 154.386C447.889 153.838 446.957 153.879 446.396 154.481L441.15 163.494C440.972 163.81 440.561 163.905 440.259 163.727C439.944 163.549 439.848 163.138 440.027 162.837L445.355 153.701C446.478 152.454 448.245 152.386 449.381 153.427L460.599 163.768L486.418 127.881C486.856 127.278 487.486 126.881 488.226 126.758C488.966 126.634 489.705 126.812 490.308 127.237L497.992 133.771C498.266 134.004 498.307 134.415 498.06 134.688C497.827 134.962 497.417 135.003 497.143 134.771L489.5 128.278C489.226 128.086 488.829 127.99 488.445 128.059C488.048 128.127 487.719 128.333 487.486 128.648L461.243 165.138C461.133 165.289 460.969 165.385 460.777 165.412C460.75 165.412 460.736 165.412 460.709 165.412L460.681 165.398Z" fill="white"/>
</g>
<defs>
<clipPath id="clip0_1_117">
<rect width="541" height="543" fill="white"/>
</clipPath>
</defs>
</svg>
