<svg width="27" height="27" viewBox="0 0 27 27" fill="none" xmlns="http://www.w3.org/2000/svg">
<rect x="0.75" y="1.22461" width="25.5" height="25.5" rx="12.75" fill="white" fill-opacity="0.5"/>
<rect x="0.75" y="1.22461" width="25.5" height="25.5" rx="12.75" stroke="white" stroke-width="0.5"/>
<path fill-rule="evenodd" clip-rule="evenodd" d="M13.5 8.34961C11.9722 8.34961 11.781 8.35598 11.181 8.38336C10.5821 8.41073 10.173 8.50598 9.81525 8.64511C9.44025 8.78611 9.10013 9.00736 8.81888 9.29386C8.53283 9.57478 8.31145 9.91467 8.17013 10.2899C8.03175 10.6476 7.93613 11.0571 7.90875 11.656C7.88175 12.2556 7.875 12.4465 7.875 13.9746C7.875 15.5027 7.88138 15.6936 7.90875 16.2936C7.93613 16.8925 8.03138 17.3016 8.1705 17.6594C8.3115 18.0344 8.53275 18.3745 8.81925 18.6557C9.10018 18.9418 9.44007 19.1632 9.81525 19.3045C10.173 19.4432 10.5821 19.5385 11.181 19.5659C11.781 19.5932 11.9722 19.5996 13.5 19.5996C15.0278 19.5996 15.219 19.5932 15.819 19.5659C16.4179 19.5385 16.827 19.4432 17.1848 19.3041C17.5598 19.1631 17.8999 18.9419 18.1811 18.6554C18.4672 18.3744 18.6886 18.0345 18.8299 17.6594C18.9686 17.3016 19.0639 16.8925 19.0913 16.2936C19.1186 15.6936 19.125 15.5024 19.125 13.9746C19.125 12.4469 19.1186 12.2556 19.0913 11.6556C19.0639 11.0567 18.9686 10.6476 18.8295 10.2899C18.6883 9.91451 18.4669 9.57448 18.1807 9.29348C17.8998 9.00744 17.5599 8.78606 17.1848 8.64473C16.827 8.50636 16.4175 8.41073 15.8186 8.38336C15.219 8.35636 15.0281 8.34961 13.5 8.34961ZM13.5 9.36323C15.0019 9.36323 15.18 9.36886 15.7733 9.39586C16.3215 9.42098 16.6193 9.51211 16.8176 9.58973C17.0801 9.69136 17.2676 9.81361 17.4645 10.0101C17.6614 10.207 17.7832 10.3945 17.8849 10.657C17.9621 10.8554 18.0536 11.1531 18.0788 11.7014C18.1058 12.2946 18.1114 12.4727 18.1114 13.9746C18.1114 15.4765 18.1058 15.6546 18.0788 16.2479C18.0536 16.7961 17.9625 17.0939 17.8849 17.2922C17.7949 17.5366 17.6512 17.7576 17.4645 17.9391C17.283 18.1259 17.062 18.2695 16.8176 18.3595C16.6193 18.4367 16.3215 18.5282 15.7733 18.5534C15.18 18.5804 15.0023 18.586 13.5 18.586C11.9977 18.586 11.82 18.5804 11.2268 18.5534C10.6785 18.5282 10.3808 18.4371 10.1824 18.3595C9.93805 18.2695 9.717 18.1258 9.5355 17.9391C9.34882 17.7576 9.20517 17.5366 9.11512 17.2922C9.03787 17.0939 8.94638 16.7961 8.92125 16.2479C8.89425 15.6546 8.88863 15.4765 8.88863 13.9746C8.88863 12.4727 8.89425 12.2946 8.92125 11.7014C8.94638 11.1531 9.0375 10.8554 9.11512 10.657C9.21675 10.3945 9.339 10.207 9.5355 10.0101C9.71698 9.82338 9.93803 9.67973 10.1824 9.58973C10.3808 9.51248 10.6785 9.42098 11.2268 9.39586C11.82 9.36886 11.9981 9.36323 13.5 9.36323Z" fill="black"/>
<path fill-rule="evenodd" clip-rule="evenodd" d="M13.5006 15.8517C13.2541 15.8517 13.0101 15.8032 12.7824 15.7089C12.5547 15.6145 12.3478 15.4763 12.1735 15.302C11.9992 15.1277 11.8609 14.9208 11.7666 14.6931C11.6723 14.4654 11.6237 14.2213 11.6237 13.9748C11.6237 13.7284 11.6723 13.4843 11.7666 13.2566C11.8609 13.0289 11.9992 12.822 12.1735 12.6477C12.3478 12.4734 12.5547 12.3352 12.7824 12.2408C13.0101 12.1465 13.2541 12.098 13.5006 12.098C13.9984 12.098 14.4758 12.2957 14.8278 12.6477C15.1798 12.9997 15.3775 13.4771 15.3775 13.9748C15.3775 14.4726 15.1798 14.95 14.8278 15.302C14.4758 15.654 13.9984 15.8517 13.5006 15.8517ZM13.5006 11.0836C12.7338 11.0836 11.9984 11.3882 11.4562 11.9304C10.914 12.4726 10.6094 13.208 10.6094 13.9748C10.6094 14.7417 10.914 15.4771 11.4562 16.0193C11.9984 16.5615 12.7338 16.8661 13.5006 16.8661C14.2674 16.8661 15.0028 16.5615 15.545 16.0193C16.0873 15.4771 16.3919 14.7417 16.3919 13.9748C16.3919 13.208 16.0873 12.4726 15.545 11.9304C15.0028 11.3882 14.2674 11.0836 13.5006 11.0836ZM17.233 11.0311C17.233 11.2124 17.161 11.3862 17.0328 11.5144C16.9047 11.6425 16.7308 11.7145 16.5496 11.7145C16.3683 11.7145 16.1945 11.6425 16.0663 11.5144C15.9381 11.3862 15.8661 11.2124 15.8661 11.0311C15.8661 10.8498 15.9381 10.676 16.0663 10.5478C16.1945 10.4197 16.3683 10.3477 16.5496 10.3477C16.7308 10.3477 16.9047 10.4197 17.0328 10.5478C17.161 10.676 17.233 10.8498 17.233 11.0311Z" fill="black"/>
</svg>
