<svg width="27" height="27" viewBox="0 0 27 27" fill="none" xmlns="http://www.w3.org/2000/svg">
<rect x="0.75" y="1.22461" width="25.5" height="25.5" rx="12.75" fill="white" fill-opacity="0.5"/>
<rect x="0.75" y="1.22461" width="25.5" height="25.5" rx="12.75" stroke="white" stroke-width="0.5"/>
<path d="M11.1739 9.56157C11.1739 10.1703 10.6957 10.6485 10.087 10.6485C9.47826 10.6485 9 10.1703 9 9.56157C9 8.95287 9.47826 8.47461 10.087 8.47461C10.6957 8.47461 11.1739 8.95287 11.1739 9.56157ZM11.1739 11.5181H9V18.4746H11.1739V11.5181ZM14.6522 11.5181H12.4783V18.4746H14.6522V14.8224C14.6522 12.779 17.2609 12.605 17.2609 14.8224V18.4746H19.4348V14.0833C19.4348 10.6485 15.5652 10.779 14.6522 12.4746V11.5181Z" fill="black"/>
</svg>
